#Comment line ignore any data following # character 
#Hierarchical Translation and Rotation (.htr) file 
[Header]	
#Header keywords are followed by a single value 
FileType HTR		#Single word string
DataType HTRS		#Translation followed by rotation and scale data
FileVersion 1		#integer
NumSegments 25		#integer
NumFrames 5		#integer
DataFrameRate 30		#integer, data frame rate in this file
EulerRotationOrder ZYX
CalibrationUnits mm
RotationUnits Degrees
GlobalAxisofGravity Y
BoneLengthAxis Y
ScaleFactor 1.00
[SegmentNames&Hierarchy]
#CHILD	PARENT
BN_Tick_Root GLOBAL
BN_Torso BN_Tick_Root
BN_L_Leg_Front01 BN_Torso
BN_L_Leg_Rear01 BN_Torso
BN_MetalTop BN_Torso
BN_Neck BN_Torso
BN_R_Leg_Front01 BN_Torso
BN_R_Leg_Rear01 BN_Torso
BN_Sack BN_Torso
BN_L_Leg_Front02 BN_L_Leg_Front01
BN_L_Leg_Front03 BN_L_Leg_Front02
BN_L_Leg_Rear02 BN_L_Leg_Rear01
BN_L_Leg_Rear03 BN_L_Leg_Rear02
BN_Head BN_Neck
BN_Needle BN_Head
BN_R_Leg_Front02 BN_R_Leg_Front01
BN_R_Leg_Front03 BN_R_Leg_Front02
BN_R_Leg_Rear02 BN_R_Leg_Rear01
BN_R_Leg_Rear03 BN_R_Leg_Rear02
BN_SackDef01 BN_Sack
BN_SackDef02 BN_Sack
BN_SackDef03 BN_Sack
BN_SackDef04 BN_Sack
BN_SackDef05 BN_Sack
BN_SackDef06 BN_Sack
[BasePosition]
#SegmentName Tx, Ty, Tz, Rx, Ry, Rz, BoneLength
BN_Tick_Root 0.000000 0.000000 0.000000 -90.000000 0.000000 0.000000 10.000000 
BN_Torso 0.000000 0.000000 0.000000 0.000000 0.000000 0.000000 10.000000 
BN_L_Leg_Front01 0.000000 0.000000 0.000000 0.000000 0.000000 0.000000 10.000000 
BN_L_Leg_Rear01 0.000000 0.000000 0.000000 0.000000 0.000000 0.000000 10.000000 
BN_MetalTop 0.000000 0.000000 0.000000 0.000000 0.000000 0.000000 10.000000 
BN_Neck 0.000000 0.000000 0.000000 0.000000 0.000000 0.000000 10.000000 
BN_R_Leg_Front01 0.000000 0.000000 0.000000 0.000000 0.000000 0.000000 10.000000 
BN_R_Leg_Rear01 0.000000 0.000000 0.000000 0.000000 0.000000 0.000000 10.000000 
BN_Sack 0.000000 0.000000 0.000000 0.000000 0.000000 0.000000 10.000000 
BN_L_Leg_Front02 0.000000 0.000000 0.000000 0.000000 0.000000 0.000000 10.000000 
BN_L_Leg_Front03 0.000000 0.000000 0.000000 0.000000 0.000000 0.000000 10.000000 
BN_L_Leg_Rear02 0.000000 0.000000 0.000000 0.000000 0.000000 0.000000 10.000000 
BN_L_Leg_Rear03 0.000000 0.000000 0.000000 0.000000 0.000000 0.000000 10.000000 
BN_Head 0.000000 0.000000 0.000000 0.000000 0.000000 0.000000 10.000000 
BN_Needle 0.000000 0.000000 0.000000 0.000000 0.000000 0.000000 10.000000 
BN_R_Leg_Front02 0.000000 0.000000 0.000000 0.000000 0.000000 0.000000 10.000000 
BN_R_Leg_Front03 0.000000 0.000000 0.000000 0.000000 0.000000 0.000000 10.000000 
BN_R_Leg_Rear02 0.000000 0.000000 0.000000 0.000000 0.000000 0.000000 10.000000 
BN_R_Leg_Rear03 0.000000 0.000000 0.000000 0.000000 0.000000 0.000000 10.000000 
BN_SackDef01 0.000000 0.000000 0.000000 0.000000 0.000000 0.000000 10.000000 
BN_SackDef02 0.000000 0.000000 0.000000 0.000000 0.000000 0.000000 10.000000 
BN_SackDef03 0.000000 0.000000 0.000000 0.000000 0.000000 0.000000 10.000000 
BN_SackDef04 0.000000 0.000000 0.000000 0.000000 0.000000 0.000000 10.000000 
BN_SackDef05 0.000000 0.000000 0.000000 0.000000 0.000000 0.000000 10.000000 
BN_SackDef06 0.000000 0.000000 0.000000 0.000000 0.000000 0.000000 10.000000 
#Beginning of Data. Separated by tabs
#Fr	Tx	Ty	Tz	Rx	Ry	Rz	SF
[BN_Tick_Root]
32 -538.312988 28.638481 -0.000010 0.000000 0.000000 -22.407759 539.074219
33 -538.312988 28.638481 -0.000010 0.000000 0.000000 -22.407759 539.074219
34 -538.312988 28.638481 -0.000010 0.000000 0.000000 -22.407759 539.074219
35 -527.630859 37.426472 -0.000011 0.000000 0.000000 -21.761684 528.956604
36 -497.894409 61.890366 -0.000012 0.000000 0.000000 -19.963434 501.726257
[BN_Torso]
32 -22.503605 156.506882 142.958969 -5.605014 2.903855 1.617938 213.162109
33 -22.682184 156.433243 142.958954 -5.605013 2.903855 1.617938 213.126968
34 -22.860765 156.359604 142.958954 -5.605013 2.903855 1.617938 213.092010
35 -34.794151 143.416443 126.191673 -6.131395 2.756703 2.504725 194.173248
36 -65.416542 109.424316 89.303802 -7.296645 2.444268 4.084867 155.654022
[BN_L_Leg_Front01]
32 -68.477791 10.734189 -26.804373 -61.395962 38.610317 158.589325 74.316254
33 -68.477791 10.734189 -26.804373 -61.395958 38.610313 158.589325 74.316254
34 -68.477791 10.734189 -26.804373 -61.395958 38.610313 158.589325 74.316254
35 -68.477791 10.734189 -26.804373 -62.292240 35.272758 155.578659 74.316254
36 -68.477791 10.734189 -26.804373 -64.003036 27.008362 149.283401 74.316254
[BN_L_Leg_Rear01]
32 -72.133743 -73.994843 -18.268616 66.748642 41.155880 -112.528015 104.939293
33 -72.133743 -73.994843 -18.268616 66.748642 41.155880 -112.528015 104.939293
34 -72.133743 -73.994843 -18.268616 66.748642 41.155880 -112.528015 104.939293
35 -72.133743 -73.994843 -18.268616 66.460274 39.432598 -113.608070 104.939293
36 -72.133743 -73.994843 -18.268616 65.890190 35.181240 -115.818260 104.939293
[BN_MetalTop]
32 0.000008 13.737477 26.403606 89.998573 -12.929121 -90.001572 29.763546
33 0.000008 13.737477 26.403606 89.998573 -12.929121 -90.001572 29.763546
34 0.000008 13.737477 26.403606 89.998573 -12.929121 -90.001572 29.763546
35 0.000008 13.737477 26.403606 89.998573 -12.929121 -90.001572 29.763546
36 0.000008 13.737477 26.403606 89.998573 -12.929121 -90.001572 29.763546
[BN_Neck]
32 0.000014 95.233284 10.002091 -69.916466 -74.355659 69.438759 95.757088
33 0.000014 95.233284 10.002091 -69.916435 -74.355644 69.438721 95.757088
34 0.000014 95.233284 10.002091 -69.916435 -74.355644 69.438721 95.757088
35 0.000014 95.233284 10.002091 -68.998497 -75.441284 68.535492 95.757088
36 0.000014 95.233284 10.002091 -66.357674 -77.807198 65.897446 95.757088
[BN_R_Leg_Front01]
32 68.477768 10.734107 -26.804314 53.272896 28.807993 68.483795 74.316193
33 68.477768 10.734107 -26.804314 53.272896 28.807993 68.483795 74.316193
34 68.477768 10.734107 -26.804314 53.272896 28.807993 68.483795 74.316193
35 68.477768 10.734107 -26.804314 54.608841 25.481665 66.278610 74.316193
36 68.477768 10.734107 -26.804314 57.509560 18.016827 61.080299 74.316193
[BN_R_Leg_Rear01]
32 72.133751 -73.994873 -18.268644 -58.647182 33.506832 -12.161974 104.939331
33 72.133751 -73.994873 -18.268644 -58.647182 33.506832 -12.161974 104.939331
34 72.133751 -73.994873 -18.268644 -58.647182 33.506832 -12.161974 104.939331
35 72.133751 -73.994873 -18.268644 -58.605625 31.225170 -13.774789 104.939331
36 72.133751 -73.994873 -18.268644 -58.551456 26.285530 -17.453770 104.939331
[BN_Sack]
32 -0.000000 -78.024918 33.657791 91.043655 -11.277763 -90.205391 84.974907
33 -0.000000 -78.024918 33.657791 91.324142 -12.387161 -90.272537 84.974907
34 -0.000000 -78.024918 33.657791 91.333450 -12.310589 -90.285759 84.974907
35 -0.000000 -78.024918 33.657791 90.935036 -10.475755 -90.205650 84.974907
36 -0.000000 -78.024918 33.657791 89.999641 -6.303734 -89.998108 84.974907
[BN_L_Leg_Front02]
32 142.805023 -0.000015 -0.000104 0.133747 0.472017 -109.908737 142.805023
33 142.805023 -0.000015 -0.000104 0.133747 0.472017 -109.908737 142.805023
34 142.805023 -0.000015 -0.000104 0.133747 0.472017 -109.908737 142.805023
35 142.805023 -0.000015 -0.000104 0.107763 0.527031 -115.242302 142.805023
36 142.805023 -0.000015 -0.000104 0.052026 0.647834 -126.405251 142.805023
[BN_L_Leg_Front03]
32 124.143021 -0.000045 0.000007 0.356100 -0.394625 118.775940 124.143021
33 124.143021 -0.000045 0.000007 0.356100 -0.394625 118.775940 124.143021
34 124.143021 -0.000045 0.000007 0.356100 -0.394625 118.775940 124.143021
35 124.143021 -0.000045 0.000007 0.353211 -0.373849 123.730995 124.143021
36 124.143021 -0.000045 0.000007 0.354674 -0.327514 132.969833 124.143021
[BN_L_Leg_Rear02]
32 139.939041 0.000075 -0.000022 0.130206 -0.194642 78.893623 139.939041
33 139.939041 0.000075 -0.000022 0.130206 -0.194642 78.893623 139.939041
34 139.939041 0.000075 -0.000022 0.130206 -0.194642 78.893623 139.939041
35 139.939041 0.000075 -0.000022 0.121124 -0.202141 82.291588 139.939041
36 139.939041 0.000075 -0.000022 0.109375 -0.229814 88.946449 139.939041
[BN_L_Leg_Rear03]
32 142.839615 0.000179 -0.000060 0.000072 -0.002346 -93.500168 142.839615
33 142.839615 0.000179 -0.000060 0.000072 -0.002346 -93.500168 142.839615
34 142.839615 0.000179 -0.000060 0.000072 -0.002346 -93.500168 142.839615
35 142.839615 0.000179 -0.000060 0.000165 -0.002341 -98.040771 142.839615
36 142.839615 0.000179 -0.000060 0.000337 -0.002323 -106.509346 142.839615
[BN_Head]
32 57.062447 -0.000030 0.000000 0.824614 6.773358 -6.378853 57.062447
33 57.062447 -0.000030 0.000000 0.824614 6.773358 -6.378854 57.062447
34 57.062447 -0.000030 0.000000 0.824614 6.773358 -6.378853 57.062447
35 57.062447 -0.000030 0.000000 0.649208 6.373035 -8.157182 57.062447
36 57.062447 -0.000030 0.000000 0.241158 5.505647 -12.070625 57.062447
[BN_Needle]
32 33.915283 69.677711 -0.000036 0.000003 0.000030 87.896805 77.493416
33 33.915283 69.677711 -0.000036 0.000003 0.000030 87.896805 77.493416
34 33.915283 69.677711 -0.000035 0.000003 0.000030 87.896805 77.493416
35 33.915283 69.677711 -0.000035 0.000003 0.000030 87.896805 77.493416
36 33.915283 69.677711 -0.000034 0.000003 0.000030 87.896805 77.493416
[BN_R_Leg_Front02]
32 142.804947 -0.000060 0.000060 -0.156599 0.394087 102.285011 142.804947
33 142.804947 -0.000060 0.000060 -0.156211 0.393606 102.285027 142.804947
34 142.804947 -0.000060 0.000060 -0.155823 0.393125 102.285027 142.804947
35 142.804947 -0.000060 0.000060 -0.152861 0.417621 104.397026 142.804947
36 142.804947 -0.000060 0.000060 -0.140280 0.453210 107.469940 142.804947
[BN_R_Leg_Front03]
32 124.143005 -0.000060 -0.000156 -0.352315 -0.420037 -111.063614 124.143005
33 124.143005 -0.000060 -0.000156 -0.352315 -0.420037 -111.063614 124.143005
34 124.143005 -0.000060 -0.000156 -0.352315 -0.420037 -111.063614 124.143005
35 124.143005 -0.000060 -0.000156 -0.351097 -0.410338 -113.274750 124.143005
36 124.143005 -0.000060 -0.000156 -0.351411 -0.400901 -116.391617 124.143005
[BN_R_Leg_Rear02]
32 139.939011 -0.000149 0.000015 -0.110125 -0.212762 -86.282753 139.939011
33 139.939011 -0.000149 0.000015 -0.109167 -0.210168 -86.282753 139.939011
34 139.939011 -0.000149 0.000015 -0.108208 -0.207574 -86.282745 139.939011
35 139.939011 -0.000149 0.000015 -0.107642 -0.207868 -86.594933 139.939011
36 139.939011 -0.000149 0.000015 -0.108367 -0.207491 -86.194664 139.939011
[BN_R_Leg_Rear03]
32 142.839417 0.000075 0.000119 0.002332 -0.000270 103.191528 142.839417
33 142.839417 0.000075 0.000119 0.002332 -0.000270 103.191528 142.839417
34 142.839417 0.000075 0.000119 0.002332 -0.000270 103.191528 142.839417
35 142.839417 0.000075 0.000119 0.002331 -0.000278 103.588585 142.839417
36 142.839417 0.000075 0.000119 0.002332 -0.000267 103.077881 142.839417
[BN_SackDef01]
32 249.782272 -3.760844 42.949425 -128.408218 -44.374973 -11.740845 253.475800
33 249.782272 -3.760844 42.949425 -128.408218 -44.374973 -11.740845 253.475800
34 249.782272 -3.760844 42.949425 -128.408218 -44.374973 -11.740845 253.475800
35 249.782272 -3.760844 42.949425 -128.408218 -44.374973 -11.740845 253.475800
36 249.782272 -3.760844 42.949425 -128.408218 -44.374973 -11.740845 253.475800
[BN_SackDef02]
32 138.789795 -62.131748 45.674385 32.077126 -27.375721 -88.781525 158.773758
33 138.789795 -62.131748 45.674385 32.077126 -27.375721 -88.781525 158.773758
34 138.789795 -62.131748 45.674385 32.077126 -27.375721 -88.781525 158.773758
35 138.789795 -62.131748 45.674385 32.077126 -27.375721 -88.781525 158.773758
36 138.789795 -62.131748 45.674385 32.077126 -27.375721 -88.781525 158.773758
[BN_SackDef03]
32 249.782272 -3.760785 -42.949661 18.144459 44.375008 -11.740894 253.475845
33 249.782272 -3.760785 -42.949661 18.144459 44.375008 -11.740894 253.475845
34 249.782272 -3.760785 -42.949661 18.144459 44.375008 -11.740894 253.475845
35 249.782272 -3.760785 -42.949661 18.144459 44.375008 -11.740894 253.475845
36 249.782272 -3.760785 -42.949661 18.144459 44.375008 -11.740894 253.475845
[BN_SackDef04]
32 138.789780 -62.131645 -45.674473 146.059982 27.375723 -88.781555 158.773743
33 138.789780 -62.131645 -45.674473 146.059982 27.375723 -88.781555 158.773743
34 138.789780 -62.131645 -45.674473 146.059982 27.375723 -88.781555 158.773743
35 138.789780 -62.131645 -45.674473 146.059982 27.375723 -88.781555 158.773743
36 138.789780 -62.131645 -45.674473 146.059982 27.375723 -88.781555 158.773743
[BN_SackDef05]
32 118.790161 46.167137 -63.831196 0.155741 51.314110 90.605110 142.537460
33 118.790161 46.167137 -63.831196 0.155741 51.314110 90.605110 142.537460
34 118.790161 46.167137 -63.831196 0.155741 51.314110 90.605110 142.537460
35 118.790161 46.167137 -63.831196 0.155741 51.314110 90.605110 142.537460
36 118.790161 46.167137 -63.831196 0.155741 51.314110 90.605110 142.537460
[BN_SackDef06]
32 118.790207 46.167194 63.831219 152.058487 -51.314072 90.605019 142.537537
33 118.790207 46.167194 63.831219 152.058487 -51.314072 90.605019 142.537537
34 118.790207 46.167194 63.831219 152.058487 -51.314072 90.605019 142.537537
35 118.790207 46.167194 63.831219 152.058487 -51.314072 90.605019 142.537537
36 118.790207 46.167194 63.831219 152.058487 -51.314072 90.605019 142.537537
